<svg xmlns="http://www.w3.org/2000/svg" width="512" height="512" viewBox="0 0 512 512" role="img" aria-labelledby="title desc"><title id="title">neurosurg-predict — site symbol, light mode</title><desc id="desc">Text-free neuroanatomical emblem: a cranial profile, sweeping cerebral vault, and gold central anatomical curve, on a solid background. No initials or lettering.</desc><defs>
<linearGradient id="cerebral-blue" x1="70" y1="310" x2="410" y2="160" gradientUnits="userSpaceOnUse"><stop stop-color="#06336B"/><stop offset="1" stop-color="#00829A"/></linearGradient>
<linearGradient id="anatomical-gold" x1="235" y1="190" x2="335" y2="408" gradientUnits="userSpaceOnUse"><stop stop-color="#F1CD68"/><stop offset="0.53" stop-color="#B88022"/><stop offset="1" stop-color="#F1CD68"/></linearGradient>
</defs><rect id="solid-background" width="512" height="512" rx="88" fill="#F8FAFC"/><g id="neuroanatomical-emblem" fill-rule="evenodd"><path fill="url(#cerebral-blue)" d="M224.153 449.259C202.763 448.106 189.627 445.725 176.791 440.674C110.240 414.486 60.776 356.824 48.842 291.522C34.028 210.454 66.177 130.398 131.090 86.706C203.472 37.988 288.323 32.975 358.455 73.273C389.351 91.026 412.349 115.493 423.139 142.086C425.153 147.052 427.717 155.054 427.397 155.374C427.327 155.444 425.770 153.263 423.936 150.528C379.055 83.619 284.500 59.531 206.003 95.010C160.404 115.620 126.651 160.405 126.827 200.064C126.857 206.813 127.039 208.246 129.033 217.416C131.527 228.887 129.441 234.181 114.393 254.571C106.733 264.950 104.887 267.721 104.272 269.765C102.764 274.778 105.743 278.718 112.959 281.254C121.956 284.417 123.610 288.309 118.954 295.361C116.312 299.363 117.956 303.198 123.293 305.486C124.301 305.918 125.202 306.348 125.295 306.442C125.389 306.535 124.715 307.426 123.798 308.421C120.310 312.205 120.853 314.614 126.150 318.839C129.389 321.423 130.142 325.143 128.769 331.780C126.575 342.389 131.344 350.342 141.474 352.967C147.600 354.555 154.795 354.232 169.658 351.701C202.236 346.153 219.435 353.730 233.085 379.642C244.176 400.696 258.105 408.776 283.356 408.802L291.317 408.810 298.667 406.908C325.407 399.986 358.606 386.588 376.447 375.518C418.199 349.611 447.436 321.137 461.614 292.575C465.231 285.288 465.443 285.501 462.338 293.299C447.568 330.386 416.595 368.846 378.284 397.674C331.638 432.773 274.306 451.961 224.153 449.259ZM326.575 379.903C318.346 373.697 310.839 364.331 305.959 354.184C301.707 345.341 300.034 339.567 296.796 322.552C293.429 304.859 288.461 297.081 274.781 288.084C253.227 273.908 247.068 259.732 252.860 237.627C256.401 224.114 252.433 214.712 240.845 209.156C220.995 199.639 244.583 189.317 270.958 195.978C283.619 199.175 291.893 205.961 291.921 213.170C291.940 218.023 290.224 220.455 282.274 226.849C271.281 235.690 266.480 243.360 265.913 252.987C265.287 263.608 269.882 271.499 283.447 283.099C296.563 294.316 299.988 301.339 303.573 324.369C307.802 351.529 314.832 367.658 327.662 379.640C331.562 383.282 331.178 383.375 326.575 379.903ZM337.394 377.977C325.317 365.441 320.266 349.593 320.576 325.206C320.793 308.153 320.661 302.669 319.904 297.094C319.102 291.185 319.243 289.142 320.726 285.201C323.043 279.046 321.281 275.434 315.118 273.704C300.967 269.734 298.079 251.758 310.126 242.626C322.172 233.495 342.979 235.240 360.402 246.842C387.191 264.683 384.190 294.476 354.531 305.129C343.904 308.945 336.955 314.984 332.601 324.185C325.166 339.897 327.569 362.532 338.253 377.423C341.197 381.527 340.961 381.679 337.394 377.977ZM385.236 278.824C388.040 258.831 370.814 239.968 344.434 234.146L341.207 233.434 344.443 232.348C359.958 227.142 360.259 211.230 345.096 197.807C323.288 178.501 286.095 164.542 256.465 164.542C219.122 164.542 190.659 186.190 207.405 201.854C209.997 204.278 210.001 204.275 205.767 203.349C183.430 198.463 174.107 183.438 182.531 165.900C190.447 149.418 213.757 137.275 243.880 133.941C283.805 129.522 340.839 145.549 369.209 169.159C370.527 170.256 371.668 171.090 371.745 171.012C372.046 170.707 363.079 163.360 357.665 159.477C324.247 135.510 274.820 123.346 235.789 129.484C191.073 136.517 161.750 166.704 175.044 192.018C180.472 202.354 191.540 208.047 211.700 210.872C230.328 213.483 238.691 217.415 242.712 225.452C247.682 235.387 238.877 247.426 226.641 247.426L224.810 247.426 226.625 246.273C233.421 241.955 234.710 234.443 229.465 229.715C224.133 224.906 214.760 223.658 199.525 225.726C180.526 228.305 167.220 224.869 157.175 214.790C144.360 201.932 143.662 182.818 155.152 159.418C185.827 96.948 278.778 72.503 349.910 108.199C395.759 131.207 426.995 173.815 429.927 217.347C432.163 250.539 413.521 279.410 388.955 280.802L384.927 281.030 385.236 278.824Z"/><path fill="url(#anatomical-gold)" d="M239.872 456.260C224.099 454.816 210.801 452.105 194.450 447.000C188.071 445.009 187.804 444.628 193.610 445.799C274.439 462.111 365.879 424.939 427.488 350.724C445.704 328.782 460.599 302.348 467.158 280.323C469.647 271.965 469.825 272.975 467.713 283.467C462.287 310.408 448.435 339.697 428.566 366.239C381.769 428.753 310.549 462.731 239.872 456.260ZM335.413 385.073C320.036 377.709 308.569 355.873 303.758 324.797C300.123 301.323 296.836 294.454 283.968 283.453C273.317 274.347 269.257 269.184 267.036 261.920C262.617 247.472 270.501 235.784 289.072 229.248C315.217 220.046 309.063 198.737 277.640 189.660C255.016 183.125 228.426 186.107 223.781 195.701C222.150 199.072 223.033 202.892 225.989 205.251C228.002 206.857 227.836 206.958 224.153 206.369C201.476 202.738 202.322 184.679 225.596 175.580C250.731 165.752 284.070 169.339 315.290 185.230C339.572 197.590 350.802 211.204 345.355 221.679C342.223 227.702 338.041 229.544 324.933 230.675C297.861 233.011 286.632 254.494 302.098 274.363C308.764 282.926 310.804 286.907 312.669 294.992C313.986 300.695 314.375 305.324 314.797 320.306C315.669 351.246 321.455 368.268 336.125 383.053C338.313 385.258 339.966 387.055 339.799 387.045C339.633 387.036 337.659 386.148 335.413 385.073Z"/></g></svg>